<?xml version="1.0" standalone="no"?><!DOCTYPE svg PUBLIC "-//W3C//DTD SVG 1.1//EN" "http://www.w3.org/Graphics/SVG/1.1/DTD/svg11.dtd"><svg t="1778219684085" class="icon" viewBox="0 0 1024 1024" version="1.1" xmlns="http://www.w3.org/2000/svg" p-id="11156" xmlns:xlink="http://www.w3.org/1999/xlink" width="200" height="200"><path d="M373.599073 369.599887m-369.599887 0a369.599887 369.599887 0 1 0 739.199775 0 369.599887 369.599887 0 1 0-739.199775 0Z" fill="#FDBF5E" p-id="11157"></path><path d="M119.200089 871.999984h31.999677v31.999678H119.200089zM231.199992 871.999984h31.999678v31.999678h-31.999678z" fill="#193651" p-id="11158"></path><path d="M175.199009 814.400564h31.999678v31.999678H175.199009z" fill="#193651" p-id="11159"></path><path d="M175.199009 927.998904h31.999678v31.999678H175.199009zM808.798816 113.600403h31.999677v31.999678h-31.999677zM920.798719 113.600403h31.999678v31.999678h-31.999678z" fill="#193651" p-id="11160"></path><path d="M864.799799 57.59942h31.999677v31.999678h-31.999677zM864.799799 169.599323h31.999677v31.999678h-31.999677z" fill="#193651" p-id="11161"></path><path d="M871.199734 616.0005V390.400193h-135.999146v225.600307c-78.399726 28.800741-134.400709 102.398969-134.400709 190.399629 0 111.999903 91.199597 201.599001 201.599001 201.599001 111.999903 0 201.599001-91.199597 201.599001-201.599001 1.602562-88.000661-54.398421-163.199388-132.798147-190.399629z" fill="#FFFFFF" p-id="11162"></path><path d="M803.99938 1024c-120.000338 0-217.599871-97.599533-217.599871-217.599871 0-88.000661 52.799984-168.000886 134.400709-201.599001V390.400193c0-8.000435 6.399936-16.00087 16.00087-16.00087h135.999146c8.000435 0 16.00087 6.399936 16.00087 16.00087v214.400935c80.000226 33.600177 134.400709 113.600403 134.400709 201.599001-1.602562 120.000338-99.202095 217.599871-219.202433 217.599871z m-52.799984-619.199436v209.599436c0 6.399936-4.799436 12.799871-9.600935 14.400371-73.60029 27.200242-123.199275 97.599533-123.199275 175.999258 0 102.398969 83.199162 187.200693 187.200693 187.200693 102.398969 0 187.200693-83.199162 187.200693-187.200693 0-78.399726-49.598985-148.799017-123.199275-175.999258-6.399936-1.6005-9.600935-8.000435-9.600934-14.400371V404.800564h-108.800967z" fill="#193651" p-id="11163"></path><path d="M676.000669 731.199339c-12.799871 22.400806-20.800306 48.000548-20.800306 75.20079 0 81.600725 67.200354 148.799017 148.799017 148.799017s148.799017-67.200354 148.799017-148.799017c0-27.200242-8.000435-52.799984-20.800306-75.20079h-255.997422z" fill="#F16051" p-id="11164"></path><path d="M704.799347 323.199839h196.799565v67.200354h-196.799565z" fill="#FFFFFF" p-id="11165"></path><path d="M901.598912 307.198969h-196.799565c-8.000435 0-16.00087 6.399936-16.00087 16.00087v67.200354c0 8.000435 6.399936 16.00087 16.00087 16.00087h196.799565c8.000435 0 16.00087-6.399936 16.00087-16.00087v-67.200354c0-9.600935-6.399936-16.00087-16.00087-16.00087z m-15.998807 67.200354h-164.799887V339.198646h164.799887v35.200677z" fill="#193651" p-id="11166"></path><path d="M775.200701 678.399355m-27.200242 0a27.200242 27.200242 0 1 0 54.400484 0 27.200242 27.200242 0 1 0-54.400484 0Z" fill="#F16051" p-id="11167"></path><path d="M803.99938 579.199323m-20.800307 0a20.800306 20.800306 0 1 0 41.600613 0 20.800306 20.800306 0 1 0-41.600613 0Z" fill="#F16051" p-id="11168"></path><path d="M373.599073 636.800806c-148.799017 0-268.799355-120.000338-268.799355-268.799356S224.800056 100.800532 373.599073 100.800532 642.400491 220.80087 642.400491 369.599887s-121.600838 267.200918-268.801418 267.200919z" fill="#FFFFFF" p-id="11169"></path><path d="M373.599073 652.799613c-156.799452 0-284.800226-128.000773-284.800225-284.800225S216.799621 83.199162 373.599073 83.199162 658.399299 211.199936 658.399299 367.999388s-127.998711 284.800226-284.800226 284.800225z m0-536.000274c-139.200145 0-252.800548 113.600403-252.800547 252.800548s113.600403 252.800548 252.800547 252.800548 252.800548-113.600403 252.800548-252.800548S512.799219 116.799339 373.599073 116.799339z" fill="#193651" p-id="11170"></path><path d="M164.66995 368.960512a209.603561 209.603561 0 1 0 419.207122 0 209.603561 209.603561 0 1 0-419.207122 0Z" fill="#E1E6E9" p-id="11171"></path><path d="M391.200443 404.800564s9.600935-8.000435-23.999243-17.599307c0 0-9.600935 1.6005-4.799436-22.400806l-9.600934-3.200999s-1.6005-20.800306-12.799871-16.00087c0 0-8.000435 4.799436-12.799871-9.600935 0 0-20.800306-12.799871-30.399179 19.199807 0 0-33.600177 11.199372-6.399935 44.799549l12.799871 17.599307-9.600935 30.399178s8.000435 3.200999 0 16.00087c0 0 8.000435 12.799871-6.399935 30.399179 0 0 1.6005 33.600177 23.999243 28.800741l-3.200999-11.199372 6.399935-11.199371-9.600935-3.200999 9.600935-11.199372-3.198936-6.399935s35.200677 8.000435 43.199049-20.800307c0 0-11.199372-19.199807 12.799871-9.600934 0 0 11.199372 3.200999 19.199807-23.999243 0 0 12.799871-6.399936 12.799871-12.799871s-7.998373-7.99631-7.998373-7.99631zM579.999573 337.600209c-4.799436 8.000435-6.399936 19.199807-6.399936 19.199807-12.799871 14.400371-28.800741-17.599307-28.800741-17.599307-14.400371 16.00087-28.800741-9.600935-28.800741-9.600935-43.199049-40.000113-65.599855 4.799436-65.599855 4.799436-33.600177 17.599307-17.599307 59.199919-17.599307 59.19992 9.600935 25.599742 40.000113 4.799436 40.000113 4.799436 9.600935 22.400806 20.800306 20.800306 20.800306 20.800306l-4.799436 9.600935c-4.799436 9.600935 9.600935 28.800741 8.000435 33.600177-1.6005 6.399936-30.399178 12.799871-17.599307 35.200677 14.400371 22.400806 1.6005 31.999678 1.600499 31.999677s4.799436 8.000435 9.600935 14.400371c38.399613-25.599742 68.800854-65.599855 83.199162-115.200902 9.598872-30.399178 11.197309-60.800419 6.397873-91.199598zM231.199992 286.400725l4.799436 23.999243c4.799436 23.999243 25.599742 3.200999 23.999243-8.000435-1.6005-11.199372 12.799871-25.599742 35.200676-12.799871s14.400371 0 43.19905-20.800307c28.800741-20.800306 35.200677 4.799436 46.400048-9.600934s23.999243-43.199049-4.799436-30.399178c-30.399178 11.199372-25.599742 3.200999 4.799436-17.599307s-16.00087 0-54.400483-11.199372c-17.599307-4.799436-19.199807-17.599307-17.599307-30.399178-22.400806 6.399936-44.799549 17.599307-63.999356 30.399178-6.399936 9.600935-14.400371 23.999243-25.599742 43.199049-15.998808 28.800741 8.000435 43.201112 8.000435 43.201112z" fill="#2EA2DB" p-id="11172"></path><path d="M28.000491 705.599597c-9.600935-9.600935-16.00087-19.199807-20.800306-31.999678l28.800742-11.199371c3.200999 8.000435 8.000435 14.400371 12.799871 20.800306l-20.800307 22.398743zM0.80025 638.399243v-8.000435c0-8.000435 0-17.599307 1.600499-27.200242l31.999678 4.799436c-1.6005 8.000435-1.6005 16.00087-1.6005 22.400806v6.399935l-31.999677 1.6005z m38.399613-59.19992l-30.399178-8.000435c3.200999-9.600935 6.399936-20.800306 9.600934-30.399178l28.800742 11.199372c-1.602562 8.000435-4.801499 17.60137-8.002498 27.200241z m20.800306-55.99892l-28.800741-12.799871 14.400371-28.800741 27.200241 14.40037c-4.799436 8.000435-8.000435 17.599307-12.799871 27.200242z m27.200242-54.400484l-27.200242-16.00087c4.799436-9.600935 11.199372-17.599307 16.00087-27.200241l27.200242 16.00087c-4.801499 9.600935-9.600935 19.199807-16.00087 27.200241z m33.600177-52.799983l-12.799871-8.000436-14.400371-6.399935 12.799872 6.399935-11.199372-8.000435 12.799871 8.000435 14.400371 8.000436h-1.6005z" fill="#193651" p-id="11173"></path><path d="M28.000491 705.599597c-6.399936-6.399936-6.399936-16.00087 0-22.400805 6.399936-6.399936 16.00087-6.399936 22.400806 0 52.799984 52.799984 235.199178-17.599307 422.399871-204.8 180.800757-180.800757 259.200483-367.999388 204.8-422.399872-38.401676-39.99805-134.400709-15.998808-249.601611 60.800419-6.399936 4.799436-17.599307 3.200999-22.400806-4.799436-4.799436-6.399936-3.200999-17.599307 4.799436-22.400805C543.200459 1.6005 648.800427-19.199807 699.999911 31.999678c36.799114 36.799114 33.600177 107.200467-8.000435 196.799565-40.000113 86.400161-110.399404 180.800757-198.400064 268.799355-187.19863 190.401692-391.99863 281.601289-465.598921 208.000999z" fill="#193651" p-id="11174"></path></svg>